ffmpeg started on 2025-05-12 at 18:15:10
Report written to "D:\Convert\FFMetrics\reports\ssim_report-6.txt"
Log level: 32
Command line:
ffmpeg -hide_banner -nostdin -i "G:\\\xc0\xed\xe8\xec\xe5\\\xce\xed\xe3\xee\xe8\xed\xe3\xe8\\!_35_\xcb\xe5\xf2\xee_2024\\DreamCast\\\xce\xf2\xf0\xff\xe4 \xf1\xe0\xec\xee\xf3\xe1\xe8\xe9\xf6 \xe8\xe7 \xe4\xf0\xf3\xe3\xee\xe3\xee \xec\xe8\xf0\xe0\\[DC] Isekai Suicide Squad - 04_Telegram_HEVC.mkv" -i "G:\\\xc0\xed\xe8\xec\xe5\\\xce\xed\xe3\xee\xe8\xed\xe3\xe8\\!_35_\xcb\xe5\xf2\xee_2024\\DreamCast\\\xce\xf2\xf0\xff\xe4 \xf1\xe0\xec\xee\xf3\xe1\xe8\xe9\xf6 \xe8\xe7 \xe4\xf0\xf3\xe3\xee\xe3\xee \xec\xe8\xf0\xe0\\[DC] Isekai Suicide Squad - 04_Telegram.mp4" -lavfi "[0:v]settb=AVTB,setpts=PTS-STARTPTS,format=pix_fmts=yuv420p10,fps=24000/1001,scale=1920:1080:flags=bicubic[main];[1:v]settb=AVTB,setpts=PTS-STARTPTS,format=pix_fmts=yuv420p,fps=24000/1001,scale=1920:1080:flags=bicubic[ref];[main][ref]ssim=eof_action=endall:stats_file='D\\:/Convert/FFMetrics/logs/ssim_logfile-6.txt'" -f null -
Input #0, matroska,webm, from 'G:\Аниме\Онгоинги\!_35_Лето_2024\DreamCast\Отряд самоубийц из другого мира\[DC] Isekai Suicide Squad - 04_Telegram_HEVC.mkv':
  Metadata:
    COMPATIBLE_BRANDS: isomiso2avc1mp41
    MAJOR_BRAND     : isom
    MINOR_VERSION   : 512
    ENCODER         : Lavf61.7.100
  Duration: 00:24:18.01, start: -0.021000, bitrate: 1321 kb/s
  Stream #0:0: Video: hevc (Main 10), yuv420p10le(tv, bt709, progressive), 1920x1080 [SAR 1:1 DAR 16:9], 23.98 fps, 23.98 tbr, 1k tbn (default)
      Metadata:
        HANDLER_NAME    : VideoHandler
        VENDOR_ID       : [0][0][0][0]
        ENCODER         : Lavc61.19.100 libx265
        BPS             : 1125010
        DURATION        : 00:24:17.914708333
        NUMBER_OF_FRAMES: 34955
        NUMBER_OF_BYTES : 205021067
        _STATISTICS_WRITING_APP: mkvpropedit v66.0.0 ('Josie') 64-bit
        _STATISTICS_WRITING_DATE_UTC: 2025-05-09 13:21:22
        _STATISTICS_TAGS: BPS DURATION NUMBER_OF_FRAMES NUMBER_OF_BYTES
  Stream #0:1: Audio: aac (LC), 48000 Hz, stereo, fltp (default)
      Metadata:
        HANDLER_NAME    : SoundHandler
        VENDOR_ID       : [0][0][0][0]
        ENCODER         : Lavc61.19.100 aac
        BPS             : 192423
        DURATION        : 00:24:18.005000000
        NUMBER_OF_FRAMES: 68345
        NUMBER_OF_BYTES : 35069379
        _STATISTICS_WRITING_APP: mkvpropedit v66.0.0 ('Josie') 64-bit
        _STATISTICS_WRITING_DATE_UTC: 2025-05-09 13:21:22
        _STATISTICS_TAGS: BPS DURATION NUMBER_OF_FRAMES NUMBER_OF_BYTES
Input #1, mov,mp4,m4a,3gp,3g2,mj2, from 'G:\Аниме\Онгоинги\!_35_Лето_2024\DreamCast\Отряд самоубийц из другого мира\[DC] Isekai Suicide Squad - 04_Telegram.mp4':
  Metadata:
    major_brand     : isom
    minor_version   : 512
    compatible_brands: isomiso2avc1mp41
    encoder         : Lavf61.1.100
  Duration: 00:24:17.98, start: 0.000000, bitrate: 3813 kb/s
  Stream #1:0[0x1](und): Video: h264 (High) (avc1 / 0x31637661), yuv420p(tv, bt709, progressive), 1920x1080 [SAR 1:1 DAR 16:9], 3665 kb/s, 23.98 fps, 23.98 tbr, 24k tbn (default)
      Metadata:
        handler_name    : VideoHandler
        vendor_id       : [0][0][0][0]
        encoder         : Lavc61.3.100 h264_qsv
  Stream #1:1[0x2](und): Audio: aac (HE-AACv2) (mp4a / 0x6134706D), 48000 Hz, stereo, fltp, 144 kb/s (default)
      Metadata:
        handler_name    : SoundHandler
        vendor_id       : [0][0][0][0]
Stream mapping:
  Stream #0:0 (hevc) -> settb:default
  Stream #1:0 (h264) -> settb:default
  ssim:default -> Stream #0:0 (wrapped_avframe)
  Stream #0:1 -> #0:1 (aac (native) -> pcm_s16le (native))
Output #0, null, to 'pipe:':
  Metadata:
    COMPATIBLE_BRANDS: isomiso2avc1mp41
    MAJOR_BRAND     : isom
    MINOR_VERSION   : 512
    encoder         : Lavf61.7.100
  Stream #0:0: Video: wrapped_avframe, yuv420p10le(tv, bt709, progressive), 1920x1080 [SAR 1:1 DAR 16:9], q=2-31, 200 kb/s, 23.98 fps, 23.98 tbn
      Metadata:
        encoder         : Lavc61.19.100 wrapped_avframe
  Stream #0:1: Audio: pcm_s16le, 48000 Hz, stereo, s16, 1536 kb/s (default)
      Metadata:
        HANDLER_NAME    : SoundHandler
        VENDOR_ID       : [0][0][0][0]
        _STATISTICS_TAGS: BPS DURATION NUMBER_OF_FRAMES NUMBER_OF_BYTES
        BPS             : 192423
        DURATION        : 00:24:18.005000000
        NUMBER_OF_FRAMES: 68345
        NUMBER_OF_BYTES : 35069379
        _STATISTICS_WRITING_APP: mkvpropedit v66.0.0 ('Josie') 64-bit
        _STATISTICS_WRITING_DATE_UTC: 2025-05-09 13:21:22
        encoder         : Lavc61.19.100 pcm_s16le
frame=  162 fps=0.0 q=-0.0 size=N/A time=00:00:06.75 bitrate=N/A speed=13.2x    frame=  357 fps=350 q=-0.0 size=N/A time=00:00:14.88 bitrate=N/A speed=14.6x    frame=  587 fps=380 q=-0.0 size=N/A time=00:00:24.48 bitrate=N/A speed=15.9x    frame=  843 fps=408 q=-0.0 size=N/A time=00:00:35.16 bitrate=N/A speed=  17x    frame= 1086 fps=422 q=-0.0 size=N/A time=00:00:45.29 bitrate=N/A speed=17.6x    frame= 1326 fps=428 q=-0.0 size=N/A time=00:00:55.30 bitrate=N/A speed=17.9x    frame= 1560 fps=433 q=-0.0 size=N/A time=00:01:05.06 bitrate=N/A speed=18.1x    frame= 1814 fps=440 q=-0.0 size=N/A time=00:01:15.65 bitrate=N/A speed=18.3x    frame= 2013 fps=435 q=-0.0 size=N/A time=00:01:23.95 bitrate=N/A speed=18.1x    frame= 2248 fps=436 q=-0.0 size=N/A time=00:01:33.76 bitrate=N/A speed=18.2x    frame= 2486 fps=438 q=-0.0 size=N/A time=00:01:43.68 bitrate=N/A speed=18.3x    frame= 2731 fps=442 q=-0.0 size=N/A time=00:01:53.90 bitrate=N/A speed=18.4x    frame= 2980 fps=445 q=-0.0 size=N/A time=00:02:04.29 bitrate=N/A speed=18.5x    frame= 3198 fps=443 q=-0.0 size=N/A time=00:02:13.38 bitrate=N/A speed=18.5x    frame= 3442 fps=444 q=-0.0 size=N/A time=00:02:23.56 bitrate=N/A speed=18.5x    frame= 3681 fps=445 q=-0.0 size=N/A time=00:02:33.52 bitrate=N/A speed=18.6x    frame= 3932 fps=448 q=-0.0 size=N/A time=00:02:43.99 bitrate=N/A speed=18.7x    frame= 4190 fps=451 q=-0.0 size=N/A time=00:02:54.75 bitrate=N/A speed=18.8x    frame= 4430 fps=452 q=-0.0 size=N/A time=00:03:04.76 bitrate=N/A speed=18.8x    frame= 4678 fps=453 q=-0.0 size=N/A time=00:03:15.11 bitrate=N/A speed=18.9x    frame= 4922 fps=454 q=-0.0 size=N/A time=00:03:25.28 bitrate=N/A speed=18.9x    frame= 5168 fps=455 q=-0.0 size=N/A time=00:03:35.54 bitrate=N/A speed=  19x    frame= 5428 fps=457 q=-0.0 size=N/A time=00:03:46.39 bitrate=N/A speed=19.1x    frame= 5678 fps=459 q=-0.0 size=N/A time=00:03:56.81 bitrate=N/A speed=19.1x    frame= 5924 fps=459 q=-0.0 size=N/A time=00:04:07.08 bitrate=N/A speed=19.1x    frame= 6150 fps=458 q=-0.0 size=N/A time=00:04:16.50 bitrate=N/A speed=19.1x    frame= 6371 fps=457 q=-0.0 size=N/A time=00:04:25.72 bitrate=N/A speed=19.1x    frame= 6621 fps=458 q=-0.0 size=N/A time=00:04:36.15 bitrate=N/A speed=19.1x    frame= 6857 fps=458 q=-0.0 size=N/A time=00:04:45.99 bitrate=N/A speed=19.1x    frame= 7104 fps=459 q=-0.0 size=N/A time=00:04:56.29 bitrate=N/A speed=19.1x    frame= 7280 fps=455 q=-0.0 size=N/A time=00:05:03.63 bitrate=N/A speed=  19x    frame= 7504 fps=454 q=-0.0 size=N/A time=00:05:12.97 bitrate=N/A speed=18.9x    frame= 7704 fps=452 q=-0.0 size=N/A time=00:05:21.32 bitrate=N/A speed=18.9x    frame= 7949 fps=453 q=-0.0 size=N/A time=00:05:31.53 bitrate=N/A speed=18.9x    frame= 8163 fps=452 q=-0.0 size=N/A time=00:05:40.46 bitrate=N/A speed=18.9x    frame= 8386 fps=451 q=-0.0 size=N/A time=00:05:49.76 bitrate=N/A speed=18.8x    frame= 8590 fps=450 q=-0.0 size=N/A time=00:05:58.27 bitrate=N/A speed=18.8x    frame= 8839 fps=451 q=-0.0 size=N/A time=00:06:08.65 bitrate=N/A speed=18.8x    frame= 9096 fps=452 q=-0.0 size=N/A time=00:06:19.37 bitrate=N/A speed=18.9x    frame= 9356 fps=453 q=-0.0 size=N/A time=00:06:30.22 bitrate=N/A speed=18.9x    frame= 9597 fps=454 q=-0.0 size=N/A time=00:06:40.27 bitrate=N/A speed=18.9x    frame= 9871 fps=456 q=-0.0 size=N/A time=00:06:51.70 bitrate=N/A speed=  19x    frame=10091 fps=455 q=-0.0 size=N/A time=00:07:00.87 bitrate=N/A speed=  19x    frame=10329 fps=455 q=-0.0 size=N/A time=00:07:10.80 bitrate=N/A speed=  19x    frame=10564 fps=455 q=-0.0 size=N/A time=00:07:20.60 bitrate=N/A speed=  19x    frame=10802 fps=455 q=-0.0 size=N/A time=00:07:30.53 bitrate=N/A speed=  19x    frame=11045 fps=455 q=-0.0 size=N/A time=00:07:40.66 bitrate=N/A speed=  19x    frame=11262 fps=455 q=-0.0 size=N/A time=00:07:49.71 bitrate=N/A speed=  19x    frame=11477 fps=454 q=-0.0 size=N/A time=00:07:58.68 bitrate=N/A speed=18.9x    frame=11708 fps=454 q=-0.0 size=N/A time=00:08:08.32 bitrate=N/A speed=18.9x    frame=11922 fps=453 q=-0.0 size=N/A time=00:08:17.24 bitrate=N/A speed=18.9x    frame=12140 fps=452 q=-0.0 size=N/A time=00:08:26.33 bitrate=N/A speed=18.9x    frame=12309 fps=450 q=-0.0 size=N/A time=00:08:33.38 bitrate=N/A speed=18.8x    frame=12503 fps=449 q=-0.0 size=N/A time=00:08:41.47 bitrate=N/A speed=18.7x    frame=12670 fps=447 q=-0.0 size=N/A time=00:08:48.44 bitrate=N/A speed=18.6x    frame=12922 fps=447 q=-0.0 size=N/A time=00:08:58.95 bitrate=N/A speed=18.7x    frame=13164 fps=448 q=-0.0 size=N/A time=00:09:09.04 bitrate=N/A speed=18.7x    frame=13434 fps=449 q=-0.0 size=N/A time=00:09:20.30 bitrate=N/A speed=18.7x    frame=13688 fps=450 q=-0.0 size=N/A time=00:09:30.90 bitrate=N/A speed=18.8x    frame=13920 fps=450 q=-0.0 size=N/A time=00:09:40.58 bitrate=N/A speed=18.8x    frame=14130 fps=449 q=-0.0 size=N/A time=00:09:49.33 bitrate=N/A speed=18.7x    frame=14340 fps=448 q=-0.0 size=N/A time=00:09:58.09 bitrate=N/A speed=18.7x    frame=14586 fps=449 q=-0.0 size=N/A time=00:10:08.35 bitrate=N/A speed=18.7x    frame=14829 fps=449 q=-0.0 size=N/A time=00:10:18.49 bitrate=N/A speed=18.7x    frame=15101 fps=450 q=-0.0 size=N/A time=00:10:29.83 bitrate=N/A speed=18.8x    frame=15352 fps=451 q=-0.0 size=N/A time=00:10:40.30 bitrate=N/A speed=18.8x    frame=15601 fps=451 q=-0.0 size=N/A time=00:10:50.69 bitrate=N/A speed=18.8x    frame=15854 fps=452 q=-0.0 size=N/A time=00:11:01.24 bitrate=N/A speed=18.9x    frame=16112 fps=453 q=-0.0 size=N/A time=00:11:12.00 bitrate=N/A speed=18.9x    frame=16354 fps=453 q=-0.0 size=N/A time=00:11:22.09 bitrate=N/A speed=18.9x    frame=16601 fps=453 q=-0.0 size=N/A time=00:11:32.40 bitrate=N/A speed=18.9x    frame=16858 fps=454 q=-0.0 size=N/A time=00:11:43.11 bitrate=N/A speed=18.9x    frame=17094 fps=454 q=-0.0 size=N/A time=00:11:52.96 bitrate=N/A speed=18.9x    frame=17344 fps=454 q=-0.0 size=N/A time=00:12:03.38 bitrate=N/A speed=18.9x    frame=17599 fps=455 q=-0.0 size=N/A time=00:12:14.02 bitrate=N/A speed=  19x    frame=17846 fps=455 q=-0.0 size=N/A time=00:12:24.32 bitrate=N/A speed=  19x    frame=18079 fps=455 q=-0.0 size=N/A time=00:12:34.04 bitrate=N/A speed=  19x    frame=18320 fps=455 q=-0.0 size=N/A time=00:12:44.09 bitrate=N/A speed=  19x    frame=18542 fps=455 q=-0.0 size=N/A time=00:12:53.35 bitrate=N/A speed=  19x    frame=18763 fps=454 q=-0.0 size=N/A time=00:13:02.57 bitrate=N/A speed=  19x    frame=18988 fps=454 q=-0.0 size=N/A time=00:13:11.95 bitrate=N/A speed=  19x    frame=19212 fps=454 q=-0.0 size=N/A time=00:13:21.30 bitrate=N/A speed=18.9x    frame=19446 fps=454 q=-0.0 size=N/A time=00:13:31.06 bitrate=N/A speed=18.9x    frame=19689 fps=454 q=-0.0 size=N/A time=00:13:41.19 bitrate=N/A speed=18.9x    frame=19918 fps=454 q=-0.0 size=N/A time=00:13:50.74 bitrate=N/A speed=18.9x    frame=20145 fps=454 q=-0.0 size=N/A time=00:14:00.21 bitrate=N/A speed=18.9x    frame=20370 fps=454 q=-0.0 size=N/A time=00:14:09.59 bitrate=N/A speed=18.9x    frame=20585 fps=453 q=-0.0 size=N/A time=00:14:18.56 bitrate=N/A speed=18.9x    frame=20814 fps=453 q=-0.0 size=N/A time=00:14:28.11 bitrate=N/A speed=18.9x    frame=21050 fps=453 q=-0.0 size=N/A time=00:14:37.96 bitrate=N/A speed=18.9x    frame=21302 fps=454 q=-0.0 size=N/A time=00:14:48.47 bitrate=N/A speed=18.9x    frame=21542 fps=454 q=-0.0 size=N/A time=00:14:58.48 bitrate=N/A speed=18.9x    frame=21774 fps=454 q=-0.0 size=N/A time=00:15:08.15 bitrate=N/A speed=18.9x    frame=21992 fps=454 q=-0.0 size=N/A time=00:15:17.24 bitrate=N/A speed=18.9x    frame=22246 fps=454 q=-0.0 size=N/A time=00:15:27.84 bitrate=N/A speed=18.9x    frame=22490 fps=454 q=-0.0 size=N/A time=00:15:38.02 bitrate=N/A speed=18.9x    frame=22748 fps=455 q=-0.0 size=N/A time=00:15:48.78 bitrate=N/A speed=  19x    frame=22995 fps=455 q=-0.0 size=N/A time=00:15:59.08 bitrate=N/A speed=  19x    frame=23235 fps=455 q=-0.0 size=N/A time=00:16:09.09 bitrate=N/A speed=  19x    frame=23435 fps=454 q=-0.0 size=N/A time=00:16:17.47 bitrate=N/A speed=18.9x    frame=23667 fps=454 q=-0.0 size=N/A time=00:16:27.11 bitrate=N/A speed=18.9x    frame=23928 fps=455 q=-0.0 size=N/A time=00:16:37.99 bitrate=N/A speed=  19x    frame=24168 fps=455 q=-0.0 size=N/A time=00:16:48.00 bitrate=N/A speed=  19x    frame=24418 fps=455 q=-0.0 size=N/A time=00:16:58.43 bitrate=N/A speed=  19x    frame=24644 fps=455 q=-0.0 size=N/A time=00:17:07.86 bitrate=N/A speed=  19x    frame=24892 fps=455 q=-0.0 size=N/A time=00:17:18.20 bitrate=N/A speed=  19x    frame=25136 fps=455 q=-0.0 size=N/A time=00:17:28.38 bitrate=N/A speed=  19x    frame=25383 fps=456 q=-0.0 size=N/A time=00:17:38.68 bitrate=N/A speed=  19x    frame=25607 fps=455 q=-0.0 size=N/A time=00:17:48.02 bitrate=N/A speed=  19x    frame=25843 fps=455 q=-0.0 size=N/A time=00:17:57.86 bitrate=N/A speed=  19x    frame=26090 fps=456 q=-0.0 size=N/A time=00:18:08.17 bitrate=N/A speed=  19x    frame=26312 fps=455 q=-0.0 size=N/A time=00:18:17.42 bitrate=N/A speed=  19x    frame=26524 fps=455 q=-0.0 size=N/A time=00:18:26.27 bitrate=N/A speed=  19x    frame=26743 fps=455 q=-0.0 size=N/A time=00:18:35.40 bitrate=N/A speed=  19x    frame=26997 fps=455 q=-0.0 size=N/A time=00:18:45.99 bitrate=N/A speed=  19x    frame=27234 fps=455 q=-0.0 size=N/A time=00:18:55.88 bitrate=N/A speed=  19x    frame=27490 fps=455 q=-0.0 size=N/A time=00:19:06.56 bitrate=N/A speed=  19x    frame=27718 fps=455 q=-0.0 size=N/A time=00:19:16.07 bitrate=N/A speed=  19x    frame=27965 fps=456 q=-0.0 size=N/A time=00:19:26.37 bitrate=N/A speed=  19x    frame=28180 fps=455 q=-0.0 size=N/A time=00:19:35.34 bitrate=N/A speed=  19x    frame=28427 fps=455 q=-0.0 size=N/A time=00:19:45.64 bitrate=N/A speed=  19x    frame=28660 fps=455 q=-0.0 size=N/A time=00:19:55.36 bitrate=N/A speed=  19x    frame=28927 fps=456 q=-0.0 size=N/A time=00:20:06.49 bitrate=N/A speed=  19x    frame=29176 fps=456 q=-0.0 size=N/A time=00:20:16.88 bitrate=N/A speed=  19x    frame=29408 fps=456 q=-0.0 size=N/A time=00:20:26.55 bitrate=N/A speed=  19x    frame=29643 fps=456 q=-0.0 size=N/A time=00:20:36.36 bitrate=N/A speed=  19x    frame=29884 fps=456 q=-0.0 size=N/A time=00:20:46.41 bitrate=N/A speed=  19x    frame=30096 fps=456 q=-0.0 size=N/A time=00:20:55.25 bitrate=N/A speed=  19x    frame=30309 fps=455 q=-0.0 size=N/A time=00:21:04.13 bitrate=N/A speed=  19x    frame=30538 fps=455 q=-0.0 size=N/A time=00:21:13.68 bitrate=N/A speed=  19x    frame=30790 fps=455 q=-0.0 size=N/A time=00:21:24.19 bitrate=N/A speed=  19x    frame=31037 fps=455 q=-0.0 size=N/A time=00:21:34.50 bitrate=N/A speed=  19x    frame=31286 fps=456 q=-0.0 size=N/A time=00:21:44.88 bitrate=N/A speed=  19x    frame=31526 fps=456 q=-0.0 size=N/A time=00:21:54.89 bitrate=N/A speed=  19x    frame=31760 fps=456 q=-0.0 size=N/A time=00:22:04.65 bitrate=N/A speed=  19x    frame=32006 fps=456 q=-0.0 size=N/A time=00:22:14.91 bitrate=N/A speed=  19x    frame=32230 fps=456 q=-0.0 size=N/A time=00:22:24.25 bitrate=N/A speed=  19x    frame=32431 fps=455 q=-0.0 size=N/A time=00:22:32.64 bitrate=N/A speed=  19x    frame=32679 fps=455 q=-0.0 size=N/A time=00:22:42.98 bitrate=N/A speed=  19x    frame=32832 fps=454 q=-0.0 size=N/A time=00:22:49.36 bitrate=N/A speed=18.9x    frame=33046 fps=454 q=-0.0 size=N/A time=00:22:58.29 bitrate=N/A speed=18.9x    frame=33234 fps=453 q=-0.0 size=N/A time=00:23:06.13 bitrate=N/A speed=18.9x    frame=33411 fps=453 q=-0.0 size=N/A time=00:23:13.51 bitrate=N/A speed=18.9x    frame=33595 fps=452 q=-0.0 size=N/A time=00:23:21.19 bitrate=N/A speed=18.9x    frame=33796 fps=451 q=-0.0 size=N/A time=00:23:29.57 bitrate=N/A speed=18.8x    frame=33974 fps=451 q=-0.0 size=N/A time=00:23:36.99 bitrate=N/A speed=18.8x    frame=34184 fps=450 q=-0.0 size=N/A time=00:23:45.75 bitrate=N/A speed=18.8x    frame=34345 fps=449 q=-0.0 size=N/A time=00:23:52.47 bitrate=N/A speed=18.7x    frame=34554 fps=449 q=-0.0 size=N/A time=00:24:01.18 bitrate=N/A speed=18.7x    frame=34770 fps=449 q=-0.0 size=N/A time=00:24:10.19 bitrate=N/A speed=18.7x    [Parsed_ssim_10 @ 000001e81d8e7800] SSIM Y:0.986377 (18.657376) U:0.992653 (21.339179) V:0.993372 (21.786357) All:0.988589 (19.426830)
[out#0/null @ 000001e81dc30640] video:15020KiB audio:273380KiB subtitle:0KiB other streams:0KiB global headers:0KiB muxing overhead: unknown
frame=34955 fps=449 q=-0.0 Lsize=N/A time=00:24:17.91 bitrate=N/A speed=18.7x    
